<?xml version="1.0" encoding="utf-8"?>
<!-- Generator: Adobe Illustrator 21.0.2, SVG Export Plug-In . SVG Version: 6.00 Build 0)  -->
<svg version="1.1" id="Layer_1" xmlns="http://www.w3.org/2000/svg" xmlns:xlink="http://www.w3.org/1999/xlink" x="0px" y="0px"
	 width="201.3px" height="39px" viewBox="0 0 201.3 39" style="enable-background:new 0 0 201.3 39;" xml:space="preserve">
<style type="text/css">
	.st0{fill:#A8BD3A;}
	.st1{fill:#003D59;}
</style>
<path class="st0" d="M0,23.7c0.6-1.2,1.2-2.4,1.9-3.6c-0.8-1.9-1.4-3.8-1.9-5.8V23.7 M3.7,0C3.7,0,0,0,0,4.5v2.4
	c0.3,4.1,1.2,8.2,2.7,11.9c2-3.2,4.5-6.2,7.5-8.7C16.1,5.1,24,1.6,34.8,0H3.7z"/>
<path class="st1" d="M38.9,2.4C26.5,3.6,18.1,7.1,12,12.3c-3.3,2.8-5.8,6-7.9,9.7C8.9,31.3,17.9,38,33,39h1.5c0,0,4.6,0.2,4.6-5V2.4
	H38.9 M7.1,28.7c-1.4-1.6-2.7-3.5-3.7-5.4C2.1,25.8,1,28.5,0,31.4V39h24.7C17,37.2,11.3,33.5,7.1,28.7"/>
<path class="st1" d="M54.1,17.4c-3.8,0-5.5-3.1-5.5-7c0-3.8,1.7-7,5.5-7s5.5,3.2,5.5,7C59.5,14.3,57.9,17.4,54.1,17.4 M54.1,4.5
	c-2.8,0-3.8,3.1-3.8,5.8c0,2.8,0.9,5.8,3.8,5.8c2.9,0,3.8-3.1,3.8-5.8C57.9,7.6,56.9,4.5,54.1,4.5 M64.2,7.5v9.6h-1.5V7.6h-1.6v-1
	h1.6V5.1c0-1.9,1.1-3.3,3.4-3.3c0.2,0,0.4,0,0.4,0v1h-0.2c-1.1,0-2,0.7-2,2.2v1.7h2.2v0.9L64.2,7.5L64.2,7.5z M70.6,7.5v9.6h-1.5
	V7.6h-1.6v-1h1.6V5.1c0-1.9,1.1-3.3,3.4-3.3c0.2,0,0.4,0,0.4,0v1h-0.2c-1.1,0-2,0.7-2,2.2v1.7h2.2v0.9L70.6,7.5L70.6,7.5z M75.3,4.6
	c-0.5,0-1-0.4-1-0.9s0.4-1,1-1c0.5,0,1,0.4,1,1S75.9,4.6,75.3,4.6 M74.5,6.6H76v10.6h-1.5V6.6z M82.7,17.4c-2.5,0-4.4-2.2-4.4-5.5
	c0-3.5,1.9-5.5,4.5-5.5c1.3,0,2.1,0.4,2.6,0.7L84.9,8c-0.3-0.3-1-0.6-1.8-0.6c-2.2,0-3.3,1.8-3.3,4.4s1.2,4.4,3.2,4.4
	c0.8,0,1.4-0.3,1.9-0.6l0.4,1C84.9,17.1,84,17.4,82.7,17.4 M87.8,12.5c0.2,2.5,1.6,3.7,3.7,3.7c1.3,0,2.3-0.3,2.9-0.6l0.4,1.1
	c-0.7,0.4-1.9,0.7-3.4,0.7c-3,0-5.1-1.8-5.1-5.6c0-3.6,1.9-5.5,4.6-5.5s4.3,1.6,4.3,5.2L87.8,12.5L87.8,12.5z M90.9,7.4
	c-1.7,0-3.2,1.3-3.1,4.3l6-0.8C93.7,8.4,92.6,7.4,90.9,7.4 M105.1,7.5v9.6h-1.5V7.6H102v-1h1.6V5.1c0-1.9,1.1-3.3,3.4-3.3
	c0.2,0,0.4,0,0.4,0v1h-0.2c-1.1,0-2,0.7-2,2.2v1.7h2.2v0.9L105.1,7.5z M112.9,17.4c-3.1,0-4.5-2.4-4.5-5.5s1.4-5.5,4.5-5.5
	s4.5,2.4,4.5,5.5S116,17.4,112.9,17.4 M112.9,7.4c-2.3,0-3,2.4-3,4.5c0,2.2,0.7,4.4,3,4.4s3-2.2,3-4.4S115.2,7.4,112.9,7.4 M124,7.6
	c-1-0.3-2.4-0.2-3.1,0.2v9.4h-1.5V7.1c1.1-0.5,2.2-0.7,4.2-0.7h0.8L124,7.6L124,7.6z M57.6,38.5l-6-9.2c-0.4-0.7-0.8-1.4-0.8-1.4
	l0,0c0,0,0.1,0.8,0.1,1.6v9H49V25.1h2.2l5.7,8.7c0.5,0.8,0.8,1.4,0.8,1.4l0,0c0,0-0.1-0.8-0.1-1.6V25h2v13.5H57.6L57.6,38.5z
	 M66,38.8c-3.1,0-4.6-1.2-4.6-3.3c0-2.9,3-3.6,6.5-3.9V31c0-1.4-1-1.9-2.4-1.9c-1,0-2.2,0.3-2.9,0.6l-0.5-1.3
	c0.7-0.3,2.1-0.8,3.8-0.8c2.4,0,4.1,1,4.1,3.7V38C69.1,38.5,67.7,38.8,66,38.8 M67.9,32.7c-2.6,0.3-4.4,0.8-4.4,2.8c0,1.4,1,2,2.6,2
	c0.7,0,1.4-0.2,1.8-0.4V32.7z M76.1,38.8c-2.2,0-3.1-1.4-3.1-2.9v-6.6h-1.5V28H73v-2.4l2.3-0.6v3h2v1.4h-2v6.5
	c0,0.8,0.5,1.5,1.4,1.5c0.2,0,0.4,0,0.6-0.1v1.4C77.2,38.7,76.7,38.8,76.1,38.8 M80.3,26.2c-0.7,0-1.3-0.5-1.3-1.2
	c0-0.6,0.6-1.2,1.3-1.2c0.7,0,1.3,0.5,1.3,1.2C81.6,25.6,81,26.2,80.3,26.2 M79.2,28h2.3v10.5h-2.3V28z M88.2,38.8
	c-3.2,0-4.8-2.4-4.8-5.5c0-3.2,1.6-5.6,4.8-5.6s4.8,2.4,4.8,5.6C93,36.4,91.4,38.8,88.2,38.8 M88.2,29.2c-1.9,0-2.5,2-2.5,4.1
	c0,2,0.6,4,2.5,4s2.5-1.9,2.5-4S90.1,29.2,88.2,29.2 M101.4,38.5V31c0-1.3-1.1-1.8-2.5-1.8c-0.7,0-1.4,0.1-1.8,0.3v9.1h-2.3V28.5
	c1-0.4,2.6-0.8,4.2-0.8c2.8,0,4.6,0.9,4.6,3.3v7.6L101.4,38.5L101.4,38.5z M110,38.8c-3.1,0-4.6-1.2-4.6-3.3c0-2.9,3-3.6,6.5-3.9V31
	c0-1.4-1-1.9-2.4-1.9c-1,0-2.2,0.3-2.9,0.6l-0.5-1.3c0.7-0.3,2.1-0.8,3.8-0.8c2.4,0,4.1,1,4.1,3.7V38
	C113.2,38.5,111.8,38.8,110,38.8 M112,32.7c-2.6,0.3-4.4,0.8-4.4,2.8c0,1.4,1,2,2.6,2c0.7,0,1.4-0.2,1.8-0.4V32.7z M116.4,38.5V23.2
	h2.3v15.4L116.4,38.5L116.4,38.5z M129.4,38.8c-1.6,0-2.9-0.4-3.7-0.8l0.6-1.6c0.5,0.3,1.5,0.6,2.6,0.6c1.6,0,2.7-0.9,2.7-2.3
	c0-3-5.6-1.8-5.6-6c0-2.2,1.7-4,4.5-4c1.4,0,2.6,0.4,3.3,0.8l-0.6,1.5c-0.5-0.3-1.4-0.6-2.4-0.6c-1.4,0-2.4,0.9-2.4,2.2
	c0,2.9,5.7,1.6,5.7,6.1C134.1,37,132.1,38.8,129.4,38.8 M139.8,38.8c-2.2,0-3.1-1.4-3.1-2.9v-6.6h-1.5V28h1.5v-2.4L139,25v3h2v1.4
	h-2v6.5c0,0.8,0.5,1.5,1.4,1.5c0.2,0,0.4,0,0.6-0.1v1.4C140.9,38.7,140.4,38.8,139.8,38.8 M146.9,38.8c-3.1,0-4.6-1.2-4.6-3.3
	c0-2.9,3-3.6,6.5-3.9V31c0-1.4-1-1.9-2.4-1.9c-1,0-2.2,0.3-2.9,0.6l-0.5-1.3c0.7-0.3,2.1-0.8,3.8-0.8c2.4,0,4.1,1,4.1,3.7V38
	C150,38.5,148.6,38.8,146.9,38.8 M148.8,32.7c-2.6,0.3-4.4,0.8-4.4,2.8c0,1.4,1,2,2.6,2c0.7,0,1.4-0.2,1.8-0.4L148.8,32.7
	L148.8,32.7z M157.1,38.8c-2.2,0-3.1-1.4-3.1-2.9v-6.6h-1.5V28h1.5v-2.4l2.3-0.6v3h2v1.4h-2v6.5c0,0.8,0.5,1.5,1.4,1.5
	c0.2,0,0.4,0,0.6-0.1v1.4C158.1,38.7,157.6,38.8,157.1,38.8 M161.2,26.2c-0.7,0-1.3-0.5-1.3-1.2c0-0.6,0.6-1.2,1.3-1.2
	s1.3,0.5,1.3,1.2C162.5,25.6,161.9,26.2,161.2,26.2 M160.1,28h2.3v10.5h-2.3V28z M167.3,38.8c-1.3,0-2.6-0.4-3.2-0.8l0.6-1.4
	c0.4,0.3,1.3,0.6,2.3,0.6c1.1,0,2.1-0.7,2.1-1.6c0-2.5-4.6-1.3-4.6-4.8c0-1.6,1.4-3.1,3.7-3.1c1.3,0,2.3,0.3,3,0.8l-0.6,1.3
	c-0.3-0.2-1-0.6-1.9-0.6c-1.2,0-1.9,0.7-1.9,1.5c0,2.4,4.7,1.3,4.7,4.8C171.4,37.2,169.8,38.8,167.3,38.8 M177.1,38.8
	c-2.2,0-3.1-1.4-3.1-2.9v-6.6h-1.5V28h1.5v-2.4l2.3-0.6v3h2v1.4h-2v6.5c0,0.8,0.5,1.5,1.4,1.5c0.2,0,0.4,0,0.6-0.1v1.4
	C178.2,38.7,177.7,38.8,177.1,38.8 M181.3,26.2c-0.7,0-1.3-0.5-1.3-1.2c0-0.6,0.6-1.2,1.3-1.2s1.3,0.5,1.3,1.2
	C182.6,25.6,182,26.2,181.3,26.2 M180.2,28h2.3v10.5h-2.3V28z M189,38.8c-2.6,0-4.6-2.1-4.6-5.6s2-5.5,4.6-5.5
	c1.3,0,2.2,0.4,2.7,0.8l-0.5,1.3c-0.3-0.2-0.9-0.5-1.6-0.5c-1.8,0-2.8,1.6-2.8,4s1.1,4,2.8,4c0.7,0,1.3-0.3,1.6-0.5l0.6,1.4
	C191.2,38.4,190.3,38.8,189,38.8 M195.9,38.8c-1.3,0-2.6-0.4-3.2-0.8l0.6-1.4c0.4,0.3,1.3,0.6,2.3,0.6c1.1,0,2.1-0.7,2.1-1.6
	c0-2.5-4.6-1.3-4.6-4.8c0-1.6,1.4-3.1,3.7-3.1c1.3,0,2.3,0.3,3,0.8l-0.6,1.3c-0.3-0.2-1-0.6-1.9-0.6c-1.2,0-1.9,0.7-1.9,1.5
	c0,2.4,4.7,1.3,4.7,4.8C200,37.2,198.4,38.8,195.9,38.8"/>
</svg>
